<?xml version="1.0" encoding="UTF-8" standalone="no"?>
<!DOCTYPE svg PUBLIC "-//W3C//DTD SVG 1.1//EN" "http://www.w3.org/Graphics/SVG/1.1/DTD/svg11.dtd">
<svg width="100%" height="100%" viewBox="0 0 850 478" version="1.1" xmlns="http://www.w3.org/2000/svg" xmlns:xlink="http://www.w3.org/1999/xlink" xml:space="preserve" xmlns:serif="http://www.serif.com/" style="fill-rule:evenodd;clip-rule:evenodd;stroke-linejoin:round;stroke-miterlimit:2;">
    <g transform="matrix(23.5483,0,0,23.5483,-12576.8,-1296.22)">
        <path d="M552.657,73.899L552.86,75.141C552.464,75.224 552.11,75.266 551.797,75.266C551.287,75.266 550.891,75.185 550.61,75.024C550.328,74.862 550.131,74.65 550.016,74.387C549.901,74.124 549.844,73.571 549.844,72.727L549.844,64.805L551.243,63.961L551.243,66.86L552.657,66.86L552.657,67.954L551.243,67.954L551.243,72.805C551.243,73.206 551.267,73.464 551.317,73.579C551.366,73.693 551.447,73.784 551.559,73.852C551.671,73.92 551.831,73.954 552.039,73.954C552.196,73.954 552.401,73.935 552.657,73.899Z" style="fill:rgb(16,25,33);fill-rule:nonzero;"/>
        <path d="M559.469,75.157L559.485,74.191C559.304,74.587 557.946,75.344 556.836,75.344C556.347,75.344 555.89,75.25 555.465,75.063C555.041,74.875 554.726,74.64 554.52,74.356C554.314,74.072 554.17,73.724 554.086,73.313C554.029,73.037 554,72.599 554,72L554,66.86L555.407,66.86L555.407,71.461C555.407,72.196 555.435,72.69 555.493,72.946C555.581,73.315 555.769,73.606 556.055,73.817C556.341,74.028 556.696,74.133 557.118,74.133C557.539,74.133 557.935,74.025 558.305,73.809C558.675,73.593 558.937,73.299 559.09,72.926C559.244,72.554 559.321,72.013 559.321,71.305L559.321,66.86L560.727,66.86L560.727,75.157L559.469,75.157Z" style="fill:rgb(16,25,33);fill-rule:nonzero;"/>
        <path d="M562.368,72.68L563.758,72.461C563.836,73.019 564.054,73.446 564.41,73.743C564.767,74.039 565.266,74.188 565.907,74.188C566.552,74.188 567.032,74.056 567.344,73.793C567.657,73.53 567.813,73.222 567.813,72.868C567.813,72.55 567.675,72.3 567.399,72.118C567.206,71.993 566.727,71.834 565.961,71.641C564.93,71.381 564.215,71.155 563.817,70.965C563.418,70.775 563.116,70.512 562.91,70.176C562.705,69.84 562.602,69.469 562.602,69.063C562.602,68.693 562.687,68.351 562.856,68.036C563.025,67.72 563.256,67.459 563.547,67.25C563.766,67.089 564.064,66.952 564.442,66.84C564.819,66.728 565.224,66.672 565.657,66.672C566.308,66.672 566.879,66.766 567.371,66.954C567.864,67.141 568.227,67.395 568.461,67.715C568.696,68.036 568.857,68.464 568.946,69L567.571,69.188C567.508,68.761 567.327,68.427 567.028,68.188C566.728,67.948 566.305,67.829 565.758,67.829C565.112,67.829 564.651,67.935 564.375,68.149C564.099,68.362 563.961,68.612 563.961,68.899C563.961,69.081 564.019,69.245 564.133,69.391C564.248,69.542 564.427,69.667 564.672,69.766C564.813,69.818 565.227,69.938 565.914,70.125C566.909,70.391 567.603,70.608 567.996,70.778C568.39,70.947 568.698,71.193 568.922,71.516C569.146,71.839 569.258,72.24 569.258,72.719C569.258,73.188 569.121,73.629 568.848,74.043C568.575,74.457 568.18,74.778 567.664,75.004C567.149,75.231 566.565,75.344 565.914,75.344C564.836,75.344 564.015,75.12 563.45,74.672C562.884,74.224 562.524,73.56 562.368,72.68Z" style="fill:rgb(16,25,33);fill-rule:nonzero;"/>
    </g>
    <g transform="matrix(1.38915,0,0,1.38915,-89.1427,-30.2456)">
        <g transform="matrix(1.16804e-17,1.01066,-0.819899,-1.16804e-17,236.573,-121.499)">
            <path d="M251.838,152.483L251.838,210.273L141.761,115.745L251.838,21.218L251.838,79.008L482.228,79.008L482.228,152.483L251.838,152.483Z" style="fill:url(#_Linear1);"/>
        </g>
        <path d="M216.68,231.602L308.501,365.868L242.969,365.868L178.491,271.176L216.68,231.602Z" style="fill:url(#_Linear2);"/>
        <path d="M110.464,365.868C110.464,365.868 111.068,300.982 111.875,298.864C113.503,294.587 131.363,274.356 135.87,268.998C169.442,229.085 241.418,150.58 241.418,150.58L308.501,150.582L172.027,305.114L172.498,365.868L110.464,365.868Z" style="fill:url(#_Linear3);"/>
    </g>
    <defs>
        <linearGradient id="_Linear1" x1="0" y1="0" x2="1" y2="0" gradientUnits="userSpaceOnUse" gradientTransform="matrix(340.467,-2.08476e-14,2.5698e-14,419.68,141.761,115.745)"><stop offset="0" style="stop-color:rgb(10,160,107);stop-opacity:1"/><stop offset="1" style="stop-color:rgb(166,213,137);stop-opacity:1"/></linearGradient>
        <linearGradient id="_Linear2" x1="0" y1="0" x2="1" y2="0" gradientUnits="userSpaceOnUse" gradientTransform="matrix(79.8299,113.172,-113.172,79.8299,197.167,252.696)"><stop offset="0" style="stop-color:rgb(10,160,107);stop-opacity:1"/><stop offset="1" style="stop-color:rgb(166,213,137);stop-opacity:1"/></linearGradient>
        <linearGradient id="_Linear3" x1="0" y1="0" x2="1" y2="0" gradientUnits="userSpaceOnUse" gradientTransform="matrix(-129.77,148.154,-148.154,-129.77,271.444,150.58)"><stop offset="0" style="stop-color:rgb(10,160,107);stop-opacity:1"/><stop offset="1" style="stop-color:rgb(166,213,137);stop-opacity:1"/></linearGradient>
    </defs>
</svg>
